<?xml version="1.0" encoding="utf-8"?>
<!-- Generator: Adobe Illustrator 16.0.0, SVG Export Plug-In . SVG Version: 6.00 Build 0)  -->
<!DOCTYPE svg PUBLIC "-//W3C//DTD SVG 1.1//EN" "http://www.w3.org/Graphics/SVG/1.1/DTD/svg11.dtd">
<svg version="1.1" id="Layer_1" xmlns="http://www.w3.org/2000/svg" xmlns:xlink="http://www.w3.org/1999/xlink" x="0px" y="0px"
	 width="612px" height="110px" viewBox="0 0 612 110" enable-background="new 0 0 612 110" xml:space="preserve">
<g>
	<g>
		<g>
			<path fill="#020202" d="M41.764,29.611h21.653c5.524,0,10.695,0.576,15.342,1.809c4.646,1.151,8.68,2.878,12.01,5.178
				c3.333,2.302,5.962,5.098,7.89,8.386c1.842,3.288,2.807,7.071,2.807,11.346c0,3.781-0.79,7.398-2.368,10.769
				c-1.577,3.371-3.855,6.331-6.924,8.798c-3.069,2.466-6.751,4.439-11.221,5.919c-4.472,1.481-9.469,2.138-15.253,2.138H41.764
				V29.611z M56.404,78.446h7.803c2.893,0,5.611-0.494,8.153-1.481c2.543-0.986,4.734-2.384,6.663-4.274
				c1.93-1.891,3.419-4.193,4.472-6.905c1.138-2.715,1.665-5.838,1.665-9.373c0-3.042-0.527-5.838-1.579-8.468
				c-1.053-2.63-2.454-4.851-4.295-6.742s-4.033-3.37-6.662-4.44c-2.544-1.067-5.348-1.562-8.417-1.562h-7.803V78.446z"/>
			<path fill="#020202" d="M161.428,28.459l27.966,55.494h-14.991l-7.451-14.879h-23.145l-7.802,14.879h-9.994l29.104-55.494
				H161.428z M146.527,64.059h17.971l-8.855-17.594L146.527,64.059z"/>
			<path fill="#020202" d="M217.886,29.611h22.445c3.855,0,7.276,0.329,10.168,1.069c2.893,0.74,5.348,1.809,7.277,3.124
				c1.927,1.315,3.331,2.878,4.295,4.685c0.962,1.809,1.402,3.782,1.402,5.919c0,1.563-0.35,2.958-0.964,4.358
				c-0.613,1.397-1.58,2.63-2.807,3.781c-1.227,1.15-2.629,2.219-4.294,3.125c-1.666,0.904-3.507,1.646-5.61,2.219l21.215,26.063
				h-15.868l-20.077-24.581h-2.63v24.581h-14.641V29.611H217.886z M232.527,54.685h3.157c1.753,0,3.418-0.247,4.998-0.657
				c1.49-0.493,2.804-1.152,3.944-1.973c1.14-0.822,2.017-1.892,2.629-3.123c0.615-1.233,0.966-2.63,0.966-4.195
				c0-1.396-0.264-2.712-0.702-3.945c-0.527-1.233-1.141-2.218-2.018-3.124c-0.876-0.904-1.927-1.563-3.068-2.056
				c-1.227-0.493-2.455-0.739-3.946-0.739h-5.961V54.685L232.527,54.685z"/>
			<path fill="#020202" d="M297.312,29.611h14.641v48.753h30.508v5.589H297.4V29.614h-0.087V29.611z"/>
			<path fill="#020202" d="M375.073,29.611h14.641v54.342h-14.641V29.611z"/>
			<path fill="#020202" d="M424.605,29.611h9.379l34.014,34.61v-34.61h9.208v55.166h-6.313l-36.996-38.149v37.325h-9.291V29.611z"/>
			<path fill="#020202" d="M547.163,57.481h24.809v20.965c-1.929,0.901-3.855,1.809-5.786,2.548
				c-1.929,0.739-3.944,1.479-6.136,2.054c-2.191,0.577-4.559,0.987-7.102,1.315c-2.542,0.329-5.435,0.493-8.68,0.493
				c-5.171,0-9.905-0.658-14.201-1.973c-4.295-1.313-8.065-3.123-11.221-5.591c-3.156-2.466-5.611-5.263-7.364-8.632
				c-1.755-3.371-2.631-7.072-2.631-11.181c0-2.877,0.438-5.591,1.229-8.14c0.789-2.548,1.928-4.932,3.421-7.071
				c1.488-2.136,3.241-4.11,5.346-5.836c2.104-1.727,4.471-3.207,7.101-4.358c2.63-1.152,5.436-2.139,8.504-2.713
				c3.069-0.658,6.313-0.987,9.731-0.987c3.069,0,5.961,0.329,8.768,1.068c2.806,0.74,5.347,1.727,7.803,2.96
				c2.366,1.233,4.558,2.629,6.398,4.275c1.93,1.563,3.507,3.206,4.733,4.932l-6.05,5.014c-1.227-1.644-2.541-3.123-3.942-4.521
				c-1.403-1.396-2.894-2.63-4.384-3.618c-1.578-1.067-3.243-1.808-4.995-2.384c-1.754-0.576-3.684-0.904-5.699-0.904
				c-3.068,0-5.961,0.491-8.593,1.48c-2.631,0.987-4.908,2.465-6.836,4.358c-1.932,1.891-3.421,4.275-4.56,7.07
				c-1.14,2.796-1.665,5.919-1.665,9.455c0,3.532,0.613,6.657,1.753,9.289c1.14,2.634,2.805,5.015,4.822,6.823
				c2.017,1.809,4.382,3.206,7.101,4.195c2.718,0.985,5.608,1.396,8.768,1.396c1.84,0,3.593-0.247,5.26-0.658
				c1.666-0.412,3.155-1.151,4.558-1.973V62.085h-10.17v-4.604H547.163L547.163,57.481z"/>
		</g>
	</g>
	<g>
		<path fill="#020202" d="M613,111H1V1h612V111z M12.396,100.396h589.207v-88.79H12.396V100.396z"/>
	</g>
</g>
</svg>
